# xmcd
#
# Track frame offsets: 
#        150
#        22683
#        41741
#        65768
#        86128
#        106852
#        130311
#        148043
#        174119
#        195752
#
# Disc length: 2860 seconds
#
# Revision: 0
# Processed by: cddbd v1.5.2PL0 Copyright (c) Steve Scherf et al.
# Submitted via: ExactAudioCopyFreeDBPlugin 1.0
#
DISCID=7c0b2a0a
DTITLE=Rockers - Andalusia (Megapack Vol. 3)
DYEAR=2010
DGENRE=Rock
TTITLE0=Andalusia
TTITLE1=Kehancuran
TTITLE2=Kesesatan
TTITLE3=Pelangi
TTITLE4=Carikan Gaza
TTITLE5=Perjuangan
TTITLE6=Rok Terus Rok
TTITLE7=Illusi Mimpi
TTITLE8=Gagasan
TTITLE9=Kau Mentari
EXTD=
EXTT0=
EXTT1=
EXTT2=
EXTT3=
EXTT4=
EXTT5=
EXTT6=
EXTT7=
EXTT8=
EXTT9=
PLAYORDER=
